<svg version="1.1"
     baseProfile="full"
     width="500" height="300"
     xmlns="http://www.w3.org/2000/svg">


	<path d="M 120.0 210.0 C -45.0 -30.0, 315.0 0.0, 195.0 255.0" stroke='#efefef' fill="transparent"/>
	<path d="M 115.5 209.0 C -44.25 -29.5, 315.0 -1.0, 204.0 248.75" stroke='#3454d1' fill="transparent"/>
	<path d="M 111.0 208.0 C -43.5 -29.0, 315.0 -2.0, 213.0 242.5" stroke='#34d1bf' fill="transparent"/>
	<path d="M 106.5 207.0 C -42.75 -28.5, 315.0 -3.0000000000000004, 222.0 236.25" stroke='#070707' fill="transparent"/>
	<path d="M 102.0 206.0 C -42.0 -28.0, 315.0 -4.0, 231.0 230.0" stroke='#d1345b' fill="transparent"/>
	<path d="M 97.5 205.0 C -41.25 -27.5, 315.0 -5.0, 240.0 223.75" stroke='#efefef' fill="transparent"/>
	<path d="M 93.0 204.0 C -40.5 -27.0, 315.0 -6.000000000000001, 249.0 217.5" stroke='#3454d1' fill="transparent"/>
	<path d="M 88.49999999999999 202.99999999999997 C -39.75 -26.499999999999996, 315.0 -7.000000000000001, 258.0 211.24999999999997" stroke='#34d1bf' fill="transparent"/>
	<path d="M 84.0 202.0 C -39.0 -26.0, 315.0 -8.0, 267.0 205.0" stroke='#070707' fill="transparent"/>
	<path d="M 79.5 201.0 C -38.25 -25.5, 315.0 -9.0, 276.0 198.75" stroke='#d1345b' fill="transparent"/>
	<path d="M 75.0 200.0 C -37.5 -25.0, 315.0 -10.0, 285.0 192.5" stroke='#efefef' fill="transparent"/>
	<path d="M 70.5 199.0 C -36.75 -24.5, 315.0 -11.0, 294.0 186.25" stroke='#3454d1' fill="transparent"/>
	<path d="M 65.99999999999999 198.0 C -36.0 -24.0, 315.0 -12.000000000000002, 303.0 180.0" stroke='#34d1bf' fill="transparent"/>
	<path d="M 61.5 197.0 C -35.25 -23.5, 315.0 -13.0, 312.0 173.75" stroke='#070707' fill="transparent"/>
	<path d="M 57.0 196.0 C -34.5 -23.0, 315.0 -14.000000000000002, 321.0 167.5" stroke='#d1345b' fill="transparent"/>
	<path d="M 52.5 195.0 C -33.75 -22.5, 315.0 -15.0, 330.0 161.25" stroke='#efefef' fill="transparent"/>
	<path d="M 47.99999999999999 194.0 C -33.0 -22.0, 315.0 -16.0, 339.0 155.0" stroke='#3454d1' fill="transparent"/>
	<path d="M 43.49999999999999 193.0 C -32.25 -21.499999999999996, 315.0 -17.0, 348.00000000000006 148.75" stroke='#34d1bf' fill="transparent"/>
	<path d="M 39.0 192.0 C -31.5 -21.0, 315.0 -18.0, 357.0 142.5" stroke='#070707' fill="transparent"/>
	<path d="M 34.49999999999999 191.0 C -30.75 -20.499999999999996, 315.0 -19.0, 366.0 136.25" stroke='#d1345b' fill="transparent"/>
	<path d="M 30.0 190.0 C -30.0 -20.0, 315.0 -20.0, 375.0 130.0" stroke='#efefef' fill="transparent"/>
	<path d="M 25.499999999999993 189.0 C -29.25 -19.5, 315.0 -21.0, 384.0 123.74999999999999" stroke='#3454d1' fill="transparent"/>

</svg>
